<?xml version="1.0" encoding="utf-8"?>
<!-- Generator: Adobe Illustrator 21.1.0, SVG Export Plug-In . SVG Version: 6.00 Build 0)  -->
<!DOCTYPE svg PUBLIC "-//W3C//DTD SVG 1.1//EN" "http://www.w3.org/Graphics/SVG/1.1/DTD/svg11.dtd">
<svg version="1.1" id="Layer_1" xmlns="http://www.w3.org/2000/svg" xmlns:xlink="http://www.w3.org/1999/xlink" x="0px" y="0px"
	 viewBox="0 0 1128 342" style="enable-background:new 0 0 1128 342;" xml:space="preserve">
<style type="text/css">
	.st0{fill:#FBD8E0;}
	.st1{fill:#785379;}
	.st2{fill:#6B4B6B;}
	.st3{fill:#E98097;}
	.st4{fill:#453145;}
	.st5{fill:#E86167;}
	.st6{fill:#D8595E;}
	.st7{fill:#EDB99A;}
	.st8{fill:#DB6D82;}
	.st9{fill:#F1CAB4;}
	.st10{fill:#BF5F74;}
	.st11{fill:#EDB09A;}
	.st12{fill:#FFFFFF;}
	.st13{fill:#DF6F89;}
	.st14{fill:#EC92A6;}
	.st15{fill:#FEEEF0;}
	.st16{fill:#A04248;}
	.st17{fill:#E19A82;}
	.st18{fill:#FBE4E9;}
	.st19{opacity:0.64;}
	.st20{fill:#E85057;}
	.st21{fill:#E6444D;}
	.st22{fill:#D1474F;}
	.st23{fill:#BC3E45;}
	.st24{fill:#E86F77;}
	.st25{fill:#C5434A;}
</style>
<g>
	<path class="st0" d="M151,0H0.4c0,0,59.7,109.6,150.6,111.4c30.2-0.7,59.8,0.8,54.8,28.5s-40.1,12.7-43.1,39.3
		c-3.7,33,39.8,19.6,80.8,23s174.4,99.6,212.4,71.5c38-28.2,53.2-43.2,80.7-25.1c27.5,18.1,38,36.2,71.4,31.1
		c32.5-4.9,35.6-45.4-6-76.7c-49.4-37.2-40.3-41.9-19.9-50c20.4-8.1,62.7-6.3,137.7-2.7c41.4,2,92.4,0,129-21.8
		c13.1-7.8,24.1-19.6,22.5-35.8c-0.8-8.4-9.9-19.2-7.5-27.4c3.2-10.6,21.4-12.6,30.1-10.2c10.4,2.9,18.6,10.9,28.3,15.6
		c21.2,9.1,56.5,9.2,68.9,7.5c39.1-0.3,124.5-30.2,136.5-78.2L970.9,0.2c0,0-97.3-0.2-109.3-0.2c-23.4,0-46.8,0-70.2,0
		c-88.2,0-176.3,0-264.5,0c-86.3,0-172.7,0-259.1,0C228.9,0,189.9,0,151,0z"/>
	<g>
		<path class="st1" d="M504.7,138.3c0,0-7.8,1.6-13.5,1.4c-5.6-0.2-13.1-4.1-15.2-0.6s19.4,16.1,51.7,9.3s47.9-22.7,53-27.3
			c5-4.5,13.6-15,9.6-16.8c-6.1-2.7-18.5,14-25,12.4c-6.6-1.6-0.3-9,3-12.6c4.2-4.6,9.4-9.8,11.5-13c2-3.2-2.5-6.7-8.9-2.5
			c-6.4,4.2-24.3,20.2-33.9,27.4c-8.2,6.1-36.2,6.5-42.2,3.4s-13.8-8.6-15.6-4.8c-1.8,3.9,8.6,9.8,15.6,13.5
			C501.8,131.8,504.7,138.3,504.7,138.3z"/>
		<path class="st2" d="M479.2,114.6c-1.5,3.2,5.5,7.9,12,11.5l4.7-3.6c0,0-2.4-0.8-7.4-4.2c-2.1-1.4-3.5-3.1-4.5-4.5
			C481.7,113,480,113,479.2,114.6z"/>
		<path class="st1" d="M491,119.1c-2.7,3.8-4.5,14.9,1.9,19s13.6,4,18.6-1.9c5-6,11-19.1,8.9-20c-2.1-1-9.3,4.6-9.3,4.6
			s-5.6-3.2-7.9-3.8c0,0,4.1-4.8,2.1-6.5C503.4,108.8,493.7,115.3,491,119.1z"/>
		<path class="st2" d="M568.3,104.1c4.2-4.6,9.4-9.8,11.5-13c1-1.6,0.4-3.2-1.3-4c0.4,1.5,0.3,3.4-1.3,5.2
			c-3.4,3.9-13.5,9.6-15.7,15.2c-1,2.6-0.2,4.6,0.9,5.9C562.7,110.5,566.1,106.5,568.3,104.1z"/>
		<path class="st2" d="M501.5,138c-7.2,2-12.3-6.8-13-8c0,0.2,0,0.3,0.1,0.5c0.1,0.6,0.4,1.7,0.6,2.9c0.7,2,1.8,3.7,3.6,4.9
			c6.4,4.1,13.6,4,18.6-1.9c5-6,11-19.1,8.9-20C519.6,120.5,509.3,135.9,501.5,138z"/>
		<path class="st1" d="M571.9,100.5c-1-3.1-3.1-5.7-3.8-8.9c-1-4.7,1.3-9.5,4.2-13.4c2.9-3.9,6.3-7.4,8.2-11.9
			c1.8-4.5,1.4-10.4-2.5-13.2c-0.7-0.5-1.5-0.8-2.2-0.4c-1,0.6-0.7,2.1-0.4,3.3c0.7,2.4,1,4.9,0.5,7.3c-1,5-4.7,9-8.1,12.8
			c-3.4,3.8-6.7,8.4-6.5,13.5c0.2,3.4,2,6.5,3.1,9.7c1.1,3.2,1.7,7.1-0.4,9.8c-1.6,2.1-5.4,3.5-5.5,6.5c-0.1,3.7,3.7,4.4,6,2.5
			C569.5,113.7,574.1,107.4,571.9,100.5z"/>
		<path class="st2" d="M590.3,104.3c0,1.9-0.4,4.7-2.8,7.3c-4.1,4.4-18.5,20.5-33.5,26s-39.5,12.2-53.9,10.2
			c-13.7-2-20.4-4.3-21.2-9.4c0-0.2-0.1-0.4-0.1-0.6c-1.2,0.1-2.1,0.5-2.7,1.4c-2.1,3.4,19.4,16.1,51.7,9.3
			c32.3-6.8,47.9-22.7,53-27.3C585.7,116.6,594.3,105.9,590.3,104.3z"/>
		<g>
			<path class="st2" d="M566.6,115.6l-1.4,1.2C565.3,116.7,565.9,116.3,566.6,115.6z"/>
			<path class="st2" d="M580.5,66.3c1.8-4.5,1.4-10.4-2.5-13.2c-0.1-0.1-0.2-0.1-0.3-0.2c0.9,2.3,2.7,7.5,2.6,10.8
				c-0.1,4.3-9.5,12.2-13.2,19.9s1.3,11.9,3.6,19.8c1.7,5.7-1.9,10.1-4,12.1l1.5-1.3c3.3-3.9,5.4-8.7,3.8-13.8
				c-1-3.1-3.1-5.7-3.8-8.9c-1-4.7,1.3-9.5,4.2-13.4C575.2,74.3,578.6,70.8,580.5,66.3z"/>
		</g>
		<g>
			<path class="st3" d="M584.5,108.7c-0.5-1,0.5-2.6,1.2-2.9c0.6-0.3,1.7-0.3,1.7,0.6c0,0.5,1.5,0.4,1.8,1.1s-0.7,1.6-1.6,2.2
				C586.4,110.5,585,109.7,584.5,108.7z"/>
			<ellipse class="st3" cx="587.6" cy="105" rx="0.5" ry="0.4"/>
			<ellipse class="st3" cx="589.2" cy="105.4" rx="0.5" ry="0.4"/>
			<ellipse class="st3" cx="589.9" cy="106.6" rx="0.5" ry="0.4"/>
		</g>
		<g>
			<path class="st3" d="M571.9,91.9c-0.5-1,0.5-2.6,1.2-2.9c0.6-0.3,1.7-0.3,1.7,0.6c0,0.5,1.5,0.4,1.8,1.1s-0.7,1.6-1.6,2.2
				C573.9,93.6,572.4,92.9,571.9,91.9z"/>
			<ellipse class="st3" cx="575" cy="88.2" rx="0.5" ry="0.4"/>
			<ellipse class="st3" cx="576.7" cy="88.6" rx="0.5" ry="0.4"/>
			<ellipse class="st3" cx="577.4" cy="89.8" rx="0.5" ry="0.4"/>
		</g>
		<path class="st3" d="M495,130.8c-1.4-0.9-1.1-3.6,0.4-2.6c1.5,1,2.9,0.6,2.9,1.9S496.5,131.8,495,130.8z"/>
		<path class="st2" d="M525,123.9c3.8,1.8,0.1,3.7,0.4,5.6c0.2,1.5,1.7,1.3,2.3,2.3c0.7,1.3-1.2,3.4-1.1,4.9
			c0.1,1.4,0.6,2.3,1.6,3.2c0.3,0.2,0.8,0.2,0.9-0.2c0.3-1.3-0.1-2.4,0.2-3.7c0.2-0.7,1.1-1.8,1.2-2.6c0.1-1.6-0.6-1.8-1.5-2.8
			c-2.7-3.1-0.3-2.2-1.1-5c-0.3-1.3-1.3-1.8-2.6-2.3C524.8,123.1,524.5,123.6,525,123.9L525,123.9z"/>
		<path class="st2" d="M538,137.5c0.3-2,1.7-3.5,1.5-5.7c-0.2-2.1-1.6-2.7-2.6-4.3c-1.8-2.8,0.8-2.8,0.5-5.1
			c-0.1-1.5-1.7-2.1-2.8-2.8c-0.3-0.2-1.1-0.1-0.9,0.4c0.6,1.5,2,1.8,1.3,3.6c-0.5,1.2-1.1,1.6-0.7,3c0.6,1.7,2.3,2.5,3,4.1
			c1.1,2.6-1,4.2-0.6,6.6C537,137.8,538,138,538,137.5L538,137.5z"/>
		<path class="st2" d="M539.4,118.3c1.2-0.2,0.5,3.9,1,4.7c1.5,2.4,4,0.7,3.1,5c-0.5,2.3-0.8,5.9,2.6,5.6c0.3,0,0.4-0.4,0.1-0.5
			c-0.6-1.1-1.2-2.2-1.7-3.3c0.2-0.5,0.4-1,0.6-1.6c0.1-0.3,0.3-0.6,0.4-0.9c0.2-0.7,0.3-1.2,0.1-1.9c-0.8-2.1-3.8-1.7-3.8-4.3
			c0-1.4,1-2.3-0.4-3.4c-0.8-0.6-1.7-0.5-2.5,0C538.5,117.9,539,118.3,539.4,118.3L539.4,118.3z"/>
		<path class="st2" d="M545.3,114.4c2.7,0.2,0.9,2.9,1.6,4.4c1.3,2.6,4.1,1.4,3.5,5.8c-0.3,2.2-0.3,4.1,2.3,4.7
			c0.3,0.1,0.5-0.2,0.2-0.4c-1.9-1.5-1-3.3-0.9-5.2c0.1-0.8,0.2-1,0-1.7c-0.5-1.3-1.7-1.6-2.6-2.5c-2.1-2.2,0.3-6.6-4.3-6
			C544.5,113.7,544.8,114.4,545.3,114.4L545.3,114.4z"/>
		<path class="st2" d="M552.2,110c2.2-0.2,1.2,5,2,6.2c0.5,1,1.4,0.9,2.2,1.5c2.9,2.3,0.2,3.3,1.3,5.7c0.4,0.9,0.9,1.1,1.8,1.4
			c0.3,0.1,0.6-0.1,0.4-0.4c-0.7-1.7-0.5-2.7-0.4-4.5c0-0.6,0.3-1.1,0-1.7c-0.5-1.1-2.3-1.7-3.1-2.6c-1.5-1.6-0.6-2-0.9-3.9
			c-0.1-0.8-0.2-1.3-0.7-1.9c-0.8-0.9-1.7-1.1-2.7-0.8C551.3,109.3,551.6,110,552.2,110L552.2,110z"/>
		<path class="st2" d="M520.4,127.1c0.6,0.5-1.9,2.5-2.1,3.2c-0.2,1,0.1,1,0.6,1.8c1.5,2.5,1.1,1.8,0.2,3.6
			c-0.3,0.5-0.5,1.1-0.6,1.7c-0.3,1.3-0.1,2.4,0.9,3.3c0.2,0.2,0.7,0.3,0.7-0.1c0.2-1,0-1.9,0.2-2.9c0.2-1.1,0.9-1.6,1.3-2.6
			c0.6-1.3,0.2-1.9-0.5-3.1c-0.7-1.2-1-1.4-0.1-2.6c0.1-0.2,0.6-0.5,0.6-0.9c0.1-0.9-0.3-1.3-1.1-1.7
			C520.4,126.6,520.1,126.9,520.4,127.1L520.4,127.1z"/>
		<path class="st2" d="M503,132.2c0.4-0.3,0.8-0.6,0.9,0.2c0,0.3-0.1,0.7-0.1,1.1c0,0.6,0.1,1.1,0.5,1.5s0.9,0.5,1.5,0.4
			c0.4,0,0.7-0.2,1.1,0.1c0.2,0.2,0.2,0.4,0.5,0.6c0.2,0.1,0.4,0.1,0.5,0c0.7-0.5,0.2-1.5-0.4-1.8c-0.4-0.2-0.9-0.2-1.3-0.2
			c-0.4,0.1-0.5,0.2-0.7-0.2c-0.1-0.3,0-0.8,0-1.1c0-1-0.4-1.8-1.4-2c-0.8-0.2-1.8,0.1-2,0.9C501.9,132.1,502.7,132.4,503,132.2
			L503,132.2z"/>
		<path class="st2" d="M507.2,129.3c0.8-0.6,0.7,1,0.8,1.4c0.2,0.4,0.4,0.7,0.8,0.9s0.8,0.1,1.2,0c0.9-0.1,1.1,0.5,1.8,0.8
			c0.1,0.1,0.4,0,0.4-0.2c0.1-0.7-0.5-1.2-1.1-1.5c-0.3-0.1-0.6-0.2-0.9-0.2c-0.6,0-1,0.4-1.3-0.3c-0.3-0.6,0-1.2-0.7-1.6
			c-0.6-0.4-1.3-0.1-1.7,0.3C506.3,129.2,506.9,129.5,507.2,129.3L507.2,129.3z"/>
		<path class="st2" d="M502.1,121.5c0.1-0.3,0.1-0.6,0.1-0.9c0-0.1,0-0.2,0-0.2c0-0.1,0-0.2,0.1-0.1c0.1-0.1,0.5-0.1,0.6-0.1
			c0.2-0.1,0.5-0.1,0.7-0.2c0.7-0.4,1.2-1.2,0.7-1.9c-0.3-0.4-1-0.3-1.2,0.1c-0.1,0.5-0.1,0.8-0.6,0.9c-0.4,0.1-0.8,0-1.2,0.3
			c-0.5,0.5,0,1.6,0.3,2.1C501.7,121.7,502,121.7,502.1,121.5L502.1,121.5z"/>
		<path class="st2" d="M505.8,122.6c0.2-0.3,0.1-0.6,0.1-1c0-0.5,0.5-0.4,0.8-0.5c0.7-0.2,1.6-1,0.8-1.7c-0.2-0.2-0.7-0.4-1-0.1
			s-0.3,0.5-0.7,0.6c-0.3,0.1-0.7,0.2-1,0.4c-0.2,0.2-0.4,0.5-0.4,0.8c0,0.4,0.4,0.7,0.4,1.1C504.8,122.7,505.6,123,505.8,122.6
			L505.8,122.6z"/>
		<path class="st2" d="M490.5,121.5c0.1,0,0.2,0,0.3,0h-0.1c0.1,0.1,0.1,0.3,0.2,0.4c0.1,0.3,0.2,0.6,0.5,0.8
			c0.5,0.4,1.3,0.4,1.9,0.2c0.4-0.1,0.5-0.7,0-0.9c-0.3-0.1-0.6,0-1-0.1c-0.2,0-0.1,0-0.2-0.1s-0.1-0.3-0.2-0.4
			c-0.2-0.5-0.7-0.9-1.3-0.9c-0.2,0-0.4,0.1-0.5,0.2v0.1C490,121.2,490.2,121.4,490.5,121.5L490.5,121.5z"/>
		<path class="st2" d="M489.7,125c0.1,0,0.1,0.6,0.1,0.7c0,0.3,0,0.5,0.1,0.7c0.2,0.4,0.7,0.7,1.2,0.5c0.3-0.1,0.4-0.4,0.1-0.6
			c-0.5-0.4-0.2-1.2-0.7-1.6c-0.4-0.3-0.9-0.4-1.2,0C489.1,124.9,489.6,125,489.7,125L489.7,125z"/>
		<path class="st4" d="M503.9,128.6c0.3-0.6,0.8-1.5,0.4-2.1c-0.2-0.4-0.7-0.4-1-0.2c-0.6,0.4-0.5,1.3-0.5,2
			C502.7,128.8,503.6,129.1,503.9,128.6L503.9,128.6z"/>
		<path class="st4" d="M494.3,125.5c0.2-0.6,0.5-1.1,0.7-1.6c0.1-0.4,0.3-1-0.3-1.1c-0.5-0.1-1.1,0.5-1.3,0.9
			c-0.3,0.6-0.4,1.1-0.3,1.8C493.1,126,494.1,126,494.3,125.5L494.3,125.5z"/>
		<path class="st4" d="M503.9,129.1c0.1-0.7,0.3-1.4,0.4-2.1c0.1-0.5,0-1.2-0.6-1.3c-1.5-0.3-1.5,2.3-1.3,3.2
			C502.5,129.7,503.7,129.9,503.9,129.1L503.9,129.1z"/>
		<path class="st0" d="M502,131.6c1.7-1,3.3-1.4,5.3-1.8c0.1,0,0.1-0.2,0-0.2c-1.9-0.3-4,0.5-5.4,1.8
			C501.7,131.5,501.9,131.6,502,131.6L502,131.6z"/>
		<path class="st0" d="M502.9,133.5c0.9,0.1,1.7,0.2,2.5,0.5c0.7,0.2,1.4,0.6,2.2,0.8c0.1,0,0.3-0.1,0.2-0.2
			c-1.1-1.1-3.4-1.5-4.9-1.5C502.6,133.2,502.6,133.5,502.9,133.5L502.9,133.5z"/>
		<path class="st0" d="M501.6,136.2c0.8,0.3,1.7,0.8,2.3,1.3c0.8,0.7,1.2,1.5,1.8,2.3c0.1,0.1,0.3,0.1,0.3-0.1c0-1-0.9-1.9-1.6-2.6
			c-0.4-0.3-0.8-0.6-1.3-0.9c-0.5-0.3-0.9-0.3-1.5-0.4C501.5,136,501.4,136.2,501.6,136.2L501.6,136.2z"/>
		<path class="st0" d="M491.5,129c-1.3-1.4-2.8-2.8-4.4-3.8c-0.1-0.1-0.4,0-0.2,0.2c1.1,1.5,2.7,2.8,4.2,4
			C491.3,129.6,491.8,129.3,491.5,129L491.5,129z"/>
		<path class="st0" d="M491.4,131c-1.6-0.6-3.8-1-5.4-0.3c-0.2,0.1,0,0.3,0.1,0.3c0.8,0.1,1.5,0,2.3,0.1c1,0,1.9,0.2,2.8,0.3
			C491.5,131.4,491.7,131.1,491.4,131L491.4,131z"/>
	</g>
	<g>
		<path class="st5" d="M333.1,127.9c0.5-4.1-0.3-8.2-1.1-12.3c-0.9-4.6-1.8-9.1-2.7-13.7c-0.8-4.1-1.7-8.4-4.4-11.6
			c-7-8.4-21.5-4.9-30.2-11.6c-2.9-2.2-4.9-5.4-7.3-8c-6.1-6.7-15.2-10.4-24.3-10.6c-9.1-0.2-18.1,2.9-25.6,8.1
			c-2.6,1.8-5.2,3.9-8.3,4.8c-7.2,2.1-14.3-2.8-21.2-5.6c-13.2-5.3-29.3-2.6-40,6.7c-6.1,5.3-10.6,13.7-8.2,21.4
			c2.2,6.9,9.3,11.1,16.2,13.4c3.5,1.2,7.3,2.1,10,4.7s3.6,7.5,0.7,9.9c-3.9,3.2-9.5-0.9-14.5-0.5c-1,0.1-2.1,0.4-2.7,1.2
			c-1,1.2-0.6,3,0,4.4c3.6,8,14.1,10.3,22.8,8.9c2.4-0.4,5.1-0.8,6.9,0.8c1.9,1.8,1.4,4.9,1.3,7.5c-0.4,7.2,3.4,14.4,9.1,18.8
			c5.7,4.4,13.2,6.2,20.4,5.8c7.5-0.4,15.5-3,22,0.7c5,2.8,7.5,8.6,11.6,12.7c5,4.9,12.7,6.9,19.5,5.1c6.8-1.8,12.5-7.3,14.5-14
			c1.7-5.6,0.9-11.8,2.7-17.4c2.2-6.8,8.5-12.1,15.5-13.2c2.3-0.4,4.8-0.3,7-1.1c3-1.1,3.9-4.3,6-6.3
			C331.3,134.6,332.7,131.4,333.1,127.9z"/>
		<path class="st6" d="M306.6,143.7c-1.7-3.2-3.3-6.1-4.9-9.4c-1.5-3.2-5.5-4-8.7-2.9c-3.5,1.2-6,4-8.8,6.4
			c-2.8,2.4-6.3,4.5-9.9,3.9c-3.3-0.6-5.7-3.2-8.7-4.7c-6.1-3-13.6-0.4-19.3,3.4c-5.7,3.8-10.6,8.9-16.8,11.7
			c-6.2,2.8-14.8,2.2-18.5-3.6c-2.5-4-2.1-9.5-5.3-13c-2.7-3-7.2-3.5-11.2-3c-4,0.4-8,1.6-12,1.3c-5.6-0.5-10.5-4-13.7-8.6
			c-0.3,1.1,0,2.3,0.5,3.4c3.6,8,14.1,10.3,22.8,8.9c2.4-0.4,5.1-0.8,6.9,0.8c1.9,1.8,1.4,4.9,1.3,7.5c-0.4,7.2,3.4,14.4,9.1,18.8
			c5.7,4.4,13.2,6.2,20.4,5.8c7.5-0.4,15.5-3,22,0.7c5,2.8,7.5,8.6,11.6,12.7c5,4.9,12.7,6.9,19.5,5.1c6.8-1.8,12.5-7.3,14.5-14
			c1.7-5.6,0.9-11.8,2.7-17.4c1.4-4.3,4.4-8,8.2-10.4C307.8,146,307.3,144.9,306.6,143.7z"/>
		<path class="st6" d="M294.2,130c0-2.7-3.3-4.3-6-4c-2.7,0.4-5.1,1.9-7.7,2.6c-3.6,0.9-7.6,0.1-10.6-2.2c-1.2-1-2.3-2.2-3.6-3
			c-2.2-1.4-4.9-1.5-7.4-1.3c-4.3,0.5-8.4,2.1-11.9,4.8c3.5-1.6,7.1-3.2,10.9-2.9c6.6,0.6,11.6,6.9,18.2,7.2
			c2.2,0.1,4.3-0.5,6.5-0.8c2.2-0.3,4.5-0.4,6.4,0.5c2,1,3.4,3.3,2.6,5.4"/>
		<path class="st6" d="M271.2,187.5c-4.5,0.2-8.6-2.6-12.2-5.4c-3.6-2.8-7.2-6-11.7-6.6c-3.4-0.5-6.8,0.5-10.2,1s-7.2,0.3-9.7-2.1
			c4.1,0.6,8.2,0.5,12.3-0.3c4.3-0.8,8.7-2.4,12.8-1.1c2.9,0.9,5.6,3.1,8.5,2.3"/>
		<path class="st5" d="M315.2,153.6c4.1-1.4,8.5-3,11.1-6.5c1.5-2,2.1-4.6,3.6-6.6c1-1.4,2.3-2.6,3.2-4c1.2-1.9,1.7-4.1,2-6.3
			c1.1-8-0.9-16.4-5.4-23.1c-4.7,5.1-9.4,10.2-12.6,16.3c-3.2,6.1-4.7,13.4-2.4,20"/>
		<path class="st5" d="M331.1,124.5c1.6-0.5,2.6-2.1,3.2-3.7c1.9-4.6,2.1-9.9,0.5-14.6s-5.1-8.7-9.5-11.1c5.6,3.7,9.1,10.4,9,17.1
			c0,3-0.9,6.4-3.5,8"/>
		<path class="st5" d="M191.3,118c-2.5-2.8-6.7-2.8-10.3-3.8c-6.2-1.7-10.9-6.9-13.6-12.7c-0.2,1.4,0.4,2.8,1.1,4
			c2.8,4.7,7.3,8.5,12.5,10.4c2.1,0.8,4.4,1.3,6.5,2.3c2.1,1,4,2.6,4.6,4.8"/>
		<path class="st5" d="M236.5,74.5c-1.8,0-3.6,0.3-5.4,0.3c-4.7,0-9.4-1.7-13.1-4.6c-3.7-3-6.3-7.2-7.3-11.8
			c1,8.5,7.6,15.5,15.1,19.6"/>
		<path class="st5" d="M162,94.1c0.1,0.5,0.2,1.1,0.1,1.7c-0.1,0.6-0.8,1-1.3,0.8c-0.2-0.2-0.4-0.4-0.5-0.6c-0.6-0.9-0.9-2-1.1-3.1
			c-1-5.8,0.5-12.1,4-16.8c2-2.7,9.9-11.2,12.7-13.1c-2.1,3.9-11,12.6-12.6,17C161.6,84.5,161.1,89.4,162,94.1z"/>
		<path class="st6" d="M314.1,94.5c-4.6-1.3-9.5-1.3-14-3c-5.9-2.2-10.6-7.3-12.3-13.3c0,2.4,0.8,4.8,1.9,6.9
			c0.9,1.8,2.1,3.4,3.6,4.7c2.8,2.4,6.6,3.3,10.2,3.7c3.7,0.5,7.6,0.5,11.1,1.8c2.4,0.9,4.2,2.9,6.6,3.6
			C319.6,96.8,316.7,95.3,314.1,94.5z"/>
		<path class="st6" d="M225.1,132c-2.5-1.8-4.1-4.7-5.4-7.5s-2.4-5.8-4.4-8.2s-4.9-4.3-8-3.9c3.5,1.1,6,4.1,7.8,7.3
			c1.8,3.2,3,6.7,4.9,9.8c1.9,3.1,4.6,6,8.1,6.9c2.8,0.7,13.6-4.4,15.1-7C237.5,131.3,228.9,134.8,225.1,132z"/>
		<path class="st6" d="M261.6,112.3c-4.2,0.3-8.2,1.9-12.3,2.8s-8.8,0.8-12.1-1.8c-2.5-2-3.7-5.1-4.4-8.2c2.4,3.4,5.1,7,9.1,8.1
			c6,1.6,11.8-3.2,18-3.5c5.2-0.2,8.7,2.8,11.8,6.6C270.1,112.9,264.9,112,261.6,112.3z"/>
		<path class="st5" d="M287.9,74.7c-2.6-5.8-7.2-10.7-12.8-13.7c-5.6-3-12.3-4-18.6-2.8c6.1-3.2,13.9-1.9,19.8,1.7
			c5.9,3.7,10.2,9.4,13.8,15.3c1.6,2.6,3.3,5.4,5.8,7.1"/>
		<path class="st6" d="M211.2,162.6c-7.5-3.8-12.9-11.3-14.1-19.6c0.1,7.1,3.1,14,8.1,19c5.1,4.9,12.1,7.7,19.2,7.6"/>
		<polygon class="st7" points="399.6,153.1 403,144.3 409.8,146.2 407,156 		"/>
		<path class="st3" d="M321.6,150.1c0.6-0.2,11.6-8.4,27.9,13.2c7.7,10.2,19.6,24,28.8,23.2c9.2-0.8,21.3-33.4,21.3-33.4
			s4-0.9,7.4,2.7c0,0-7.7,42-20.6,48.6c-12.9,6.6-26-7.5-26-7.5l-27.5-43"/>
		<path class="st8" d="M538.5,317.4c0,0-1.7,3.9,0.8,6.6c2.5,2.6,7.4,3,10.9,4.7c4.9,2.3,6.6,11.5,18.7,12.5c12.1,1.1,16.7-1.5,17-5
			s0.4-5.8-5.4-7.9s-13.3-5.3-16.4-6.7c-3.1-1.4-16.9-6.2-16.9-6.2L538.5,317.4z"/>
		<path class="st8" d="M384.4,197.7c-8.7,4.8-13.4-4-24-15.1c-7.9-8.3-19.1-19-24.5-24l24.5,38.3c0,0,13.1,14.1,26,7.5
			c9.5-4.9,16.2-28.9,19-41.3C402.2,170.5,391.7,193.7,384.4,197.7z"/>
		<path class="st8" d="M568.2,251c0,0-0.7,3,2.5,5.8c3.2,2.9,3.3,5.6,6.6,6c3.3,0.4,10.3-9.9,13.9-13.4c3.6-3.4,21.1-19.1,18.2-22.1
			c-3-3-9.4,0.7-13.9,3.6c-4.5,2.9-24.3,13.5-24.6,13.6C570.6,244.6,568.2,251,568.2,251z"/>
		<path class="st8" d="M568.2,251c0,0-0.7,3,2.5,5.8c3.2,2.9,3.3,5.6,6.6,6c3.3,0.4,10.3-9.9,13.9-13.4c3.6-3.4,21.1-19.1,18.2-22.1
			c-3-3-9.4,0.7-13.9,3.6c-4.5,2.9-24.3,13.5-24.6,13.6C570.6,244.6,568.2,251,568.2,251z"/>
		<path class="st8" d="M407.7,285.4c0,0,13,1.7,21.4-3.7c9.5-6.1,21.3-27.8,24.5-38s5.4-30.8,9.4-38c4.1-7.1,18.5-26.9,6.3-25.9
			s-21.7,19.6-24.3,26.5c-2.6,6.9-13.3,49.8-19.8,55.3S407.1,278,407.7,285.4z"/>
		<path class="st9" d="M552.3,319c0,0-25.5-16.3-36.8-23.1c-11.3-6.8-30.5-22.7-43.5-27.6c-12.9-4.9-59.8-22.5-59.8-22.5l-29.6,28.8
			c0,0,38.3,13.3,59.4,12.8s26.3,5.1,32.3,8c6.1,2.8,33.9,14.5,46.8,18.4c7.4,2.3,14.1,3.9,18.3,5l0,0c0,0,0.5,1.6,2.2,3.6
			c1.7,2.1,5.9,2.9,8.5,1.3C553.4,321.7,552.3,319,552.3,319z"/>
		<path class="st10" d="M468.8,179.9c-11.8,1.6-21.2,19.6-23.7,26.4c-2.6,6.9-13.3,49.8-19.8,55.3s-18.1,16.4-17.5,23.8
			c0,0,13.1,1.7,21.4-3.7c3.2-2.1,5.5-7.2,8.8-11.7c2.4-4.1,4.5-8,5.7-10.7c4.1-9.1,14.5-49.8,15.8-63.3
			C460.1,188,465,182.8,468.8,179.9z"/>
		<g>
			<path class="st11" d="M550.2,323.7c0.3-0.2,0.5-0.4,0.7-0.5c-3.6,0.9-9.7-1.7-11.4-4.4c0,0,0.5,1.6,2.2,3.6
				C543.4,324.4,547.6,325.2,550.2,323.7z"/>
			<path class="st11" d="M521.1,313.7c7.4,2.3,14.1,3.9,18.3,5c-2.2-3.6-16.1-7.1-16.1-7.1c-1.6,0.4-2.6,1.1-3.4,1.8
				C520.4,313.5,520.8,313.6,521.1,313.7z"/>
		</g>
		<path class="st9" d="M404.6,217.4c0,0,73.3-20.3,84.5-20.7c11.3-0.4,35.2,21.7,47.7,28.9s34.1,18.9,34.1,18.9l4.8-2.5
			c0,5.5-5.3,9.1-6.6,9.5c-5.2-1.8-14.6-3.7-24.1-6.7c-8.6-2.7-18.5-4.5-33.2-11.8c-12.5-6.2-16.9-13.8-23.3-10.9
			c-6.3,2.9-36.6,23.6-57.8,26.2S404.6,217.4,404.6,217.4z"/>
		<path class="st12" d="M539.4,310.8c-0.3,0.9-0.6,1.9-1.1,2.9c-0.8,1.8-3.1,2.9-4.7,3.5c2.2,0.6,4.2,1.1,5.9,1.5l0,0
			c0,0,0.5,1.6,2.2,3.6c1.7,2.1,5.9,2.9,8.5,1.3c3.2-2,2.1-4.7,2.1-4.7S546.6,315.4,539.4,310.8z"/>
		<path class="st1" d="M472,268.3c-12.9-4.9-59.8-22.5-59.8-22.5l-29.6,28.8c0,0,38.3,13.3,59.4,12.8s26.3,5.1,32.3,8
			c6,2.8,33.5,14.3,46.5,18.3c1.9-1.3,3.7-2.9,4.5-4.9c1-2.3,1.5-4.2,1.8-5.7c-4.4-2.7-8.5-5.3-11.6-7.2
			C504.2,289.1,484.9,273.2,472,268.3z"/>
		<path class="st11" d="M545,244.9c9.5,3,18.9,4.9,24.1,6.7c0.7-0.2,2.7-1.5,4.4-3.5c-2,0.6-4.1,0.7-5.7,0.3
			c-2.8-0.6-18.5-7.7-18.5-7.7l-5.5,3.8C544.2,244.7,544.6,244.8,545,244.9z"/>
		<path class="st12" d="M564,240.8c-0.2,1.7-0.8,3.9-2,5.6c-0.7,0.9-1.3,1.9-1.7,2.7c3.5,0.9,6.5,1.7,8.8,2.5c1.3-0.4,6.6-4,6.6-9.5
			l-4.7,2.5C570.9,244.6,568.1,243.1,564,240.8z"/>
		<path class="st9" d="M295.1,132.1c0,0,6.6,12,4.5,18.5c-2.2,6.5-7.1,10.1-7.1,10.1s8.8,15.8,22.8,10.6s10.8-19.7,10.8-19.7
			l-7.7-0.4l-1.5,1.5c0,0-1.4-0.6-0.6-5.7C317.1,142,295.1,132.1,295.1,132.1z"/>
		<path class="st11" d="M317.4,152.4l-0.4,0.3c0,0-1.4-0.6-0.6-5.7c0.6-4.4-15.4-12.3-20-14.4l-0.3,1.2c1.4,3,4.1,9.1,4,14
			c2.5,3.9,6.1,7.5,10.6,8C314.4,156.2,317,154.9,317.4,152.4z"/>
		<path class="st2" d="M520.8,313.6c0.9-0.6,1.8-1.3,2.5-2.1c-11.1-2.9-42.6-18.9-51.4-23.2c-9.9-4.8-18.5-5.6-27.6-5.7
			s-12.8,1-8.6-6.5c2.9-5.2,4-14.6,4.4-19.9c-0.9-0.3-1.8-0.7-2.7-1l-27.1,27.4c10.8,2.6,22.7,4.9,31.6,4.6
			c21.1-0.5,26.3,5.1,32.3,8C480.4,298.1,507.8,309.6,520.8,313.6z"/>
		<path class="st1" d="M489.1,196.8c-11.3,0.4-84.5,20.7-84.5,20.7s5,33.5,26.2,30.9s51.5-23.3,57.8-26.2s10.7,4.7,23.3,10.9
			c14.6,7.3,24.6,9.1,33.2,11.8c0.3,0.1,0.6,0.2,0.9,0.3c1.4-1.2,3.2-3.3,3.9-5.9c0.5-2,0.5-4.2,0.4-6.1c-4.9-2.7-9.7-5.4-13.3-7.6
			C524.3,218.4,500.4,196.4,489.1,196.8z"/>
		<path class="st9" d="M330.1,121.4c-0.2-10.8-5.2-19-18.9-17.6c-8.1,0.8-16.2,7.7-16.8,19.2c-1-0.8-4.2-2-5.3,0.9
			c-1.9,4.9,4.2,11.1,7.6,10.5c4,8.7,12.5,15.7,20.3,15.3C327.7,149.2,330.3,132.1,330.1,121.4z"/>
		<path class="st11" d="M403.4,187.1c0,0,14.3-2.8,14.3-4.5s-4.7-0.2-7.7,0.5C406.9,183.7,403.4,187.1,403.4,187.1z"/>
		<path class="st7" d="M330.1,121.4c-0.2-10.8-5.2-19-18.9-17.6c-6.1,0.6-12.3,4.7-15.1,11.7l2.5,13.7c0,0,3.7,4.1,5.6-0.5
			c1.9-4.6,10-10,13.6-8.7s4.8,4.6,6.6,3.5c1.9-1.1,1.6-2.6,3.9-1.8c0.7,0.2,1.3,0.4,1.8,0.4C330.1,121.8,330.1,121.6,330.1,121.4z"
			/>
		<path class="st2" d="M545,244.9c0.3,0.1,0.6,0.2,0.9,0.3c1.1-1,2.5-2.6,3.4-4.5c-5.3-3-31.9-18.2-45.1-25.5
			c-14.6-8.1-18.8-1.5-28.7,5.5c-4.1,2.9-10.1,5.3-15.7,7.1c-0.7-2.6-1.3-5.1-1.5-7.1c-0.5-4.6,0.7-13.2,1.4-17.8
			c-3.6,0.9-7.3,1.8-11.1,2.8c-2,9.5-6.9,33-8,40.4c19.7-6.1,42.6-21.5,48-24c6.3-2.9,10.7,4.7,23.3,10.9
			C526.4,240.4,536.4,242.2,545,244.9z"/>
		<path class="st9" d="M419,171.8c-0.8-0.8-2.2,0.9-2.2,0.9c2.6-3.6,2.3-6.4,1-5.6c-1,0.6-2.8,2.6-2.8,2.6c2.4-3.5,0.9-5.4-0.7-3.5
			c-1.6,2-5.1,4.8-10,7.8c-4.8,3.1-14.3,2.9-14.1,2.9c-0.5-0.6,1.3-3.9,1.9-5.3c0.6-1.4,2.1-4.8-0.3-5.4c-2.4-0.7-5.5,8.2-5.5,10.1
			c0,1.5-0.8,3.1-1.1,3.8l-7.6,5l3.4,6.9l6.4-6.2l0,0c-0.1,1.5,4.9,2.5,10,2.5c2.5,0,7.8-1.1,10.2-2.6c2.4-1.6,7.2-6.5,8.5-7.7
			C417.6,176.7,419.8,172.5,419,171.8z"/>
		<path class="st3" d="M297.5,155c0,0-6.4,9.8,6.1,11.5s21.8-11.1,17.8-14.3c-2.3-1.6-4.4,0.5-4.4,0.5s-1-1-0.8-2.1
			c3.4-1.2,12.9-1.7,16,1.6c5.6,5.9,23.6,32,28.2,39.8c4.6,7.8,19.9,20.1,24.3,18.8c4.4-1.3,18.2-7.8,30.6-9.8
			c12.4-2,32.3-8.5,37-12.3s10.1-9.8,17-9c0,0-8.3,2.5-12.6,9.2c-4.2,6.7-8.6,23-9.1,36.6s-10.2,39-21.3,46.3
			c-11.1,7.4-18.6,13.5-18.6,13.5s-51.5-12.2-70.4-36.8s-39.8-70.8-44.8-72s-11-2.1-11-2.1S288.8,162.2,297.5,155z"/>
		<path class="st13" d="M371.2,266.7c-16.1-6.8-27.9-20.9-36.6-33c-8.7-12.1-29.1-36-35.7-45c9,15.1,19.3,36.8,38.3,59.8
			c19.8,24,70.4,36.8,70.4,36.8s7.5-6.1,18.6-13.5C412.8,280.5,387.3,273.6,371.2,266.7z"/>
		<path class="st3" d="M289.3,170.8c-6-0.2-12.5,1.9-5.9,20.3s26.4,32.9,46.7,29.6c17.1-2.8,43.3-18,51.7-29.6
			c-0.5-1.2-0.6-5.8-4.1-6.1c0.1-0.9-13.8,11.8-32.4,17.2s-31.9,0.4-38.1-4.6C301.1,192.8,299.5,171.2,289.3,170.8z"/>
		<path class="st7" d="M415.7,123.5c-0.8,0.2-0.9,2.9-1.4,5.5c-0.2,0.9-0.5,1.7-0.8,2.4c0.1-2.3,0.3-5,0.2-6.7
			c-0.1-3.4-0.4-7.2-2.3-7c-1.8,0.2-0.7,3.1-0.5,5.9c0.1,2.8-1,6.8-1,6.8s0.8-6.1,0.4-8.5c-0.3-2.4-0.5-5.7-2.5-5.4
			c-2,0.4-0.1,5.2,0,7.9c0,0.9-0.3,2.5-0.7,4.2c-0.3-2.3-0.7-4.7-0.9-5.5c-0.3-1.3-0.6-7.3-2.4-6.8c-1.8,0.4,0.4,9.4,0.7,11.7
			c0.1,1.3-0.1,2.6-0.3,3.6c-0.6,1.3-2,4.4-2,4.4s-2.2-0.8-3.2-1.7c-0.9-0.9-3-4.4-4-3.9c-1.1,0.6-0.4,2.7,0.6,4.9
			c1,2.1,6.7,10.4,6.9,10.6c0,0,3.8,4,7.1,1.5c2.4-1.8,6.5-11.6,7-18.2C416.8,127.1,417.4,123.2,415.7,123.5z"/>
		<path class="st13" d="M415.7,264.2c1.9-0.5,3.8-1.2,5.4-2.4c2.1-1.6,3.6-3.8,4.7-6.2c2.8-6.2,3.3-13.2,4.4-19.9s3-13.7,7.9-18.5
			c-4.2,1.1-7.8,4-10.4,7.5s-4.1,7.7-5,12c-0.7,3.3-1.1,6.7-3,9.5c-2.4,3.6-6.7,5.5-9.6,8.7c-1.4,1.6-5.2,7.2-3.4,9.4
			C408.1,266.2,413.9,264.7,415.7,264.2z"/>
		<path class="st13" d="M378.7,217.4c-3.6,4.1-6.6,8.9-8.6,13.9c-0.9,2.3-1.9,5-4.3,5.8c-0.2,0.1-0.3,0.1-0.5,0.1
			c-0.2-0.1-0.4-0.4-0.4-0.6c-0.1-0.9,0.4-1.9,0.8-2.7c1.3-2.3,2.7-4.6,4-6.9c1.5-2.7,3.1-5.3,5.1-7.6c1.7-2,4.2-4.4,6.8-4.9
			C381,215.4,379.6,216.3,378.7,217.4z"/>
		<path class="st13" d="M381.8,191.1c-0.2-0.5-0.3-1.4-0.6-2.4c-7,13.1-39.5,25.1-54.4,28.6c-15.1,3.5-26.6-6.9-36.2-20.5
			c-9.6-13.7-5.8-25.4-5.8-25.4c-3.9,1.5-6.2,6.2-1.4,19.8c6.6,18.4,26.4,32.9,46.7,29.6C347.3,218,373.5,202.7,381.8,191.1z"/>
		<path class="st14" d="M364.9,193.5c-5.4,3.2-12.1,6.6-19.6,8.8c-18.5,5.4-31.9,0.4-38.1-4.6c-4.1-3.3-6.2-14.2-10.2-21
			c-0.1,1.8-0.6,26.9,22.8,29.4C340.2,208.3,359.3,200.5,364.9,193.5z"/>
		<path class="st5" d="M323.2,110c-1.3,0-3.2-2.4-5.4-2.5c-2.1-0.1-8.4,0.4-10.2,1.1c-5.3,2.3-8.1,8-7.7,11.3
			c0.3,3.3-0.1,8.8-1.3,9.1c-1.2,0.3-3.2-5.2-4.6-6.7c-1.3-1.4-0.3-6.5,1.6-9.4c1.9-3,3.8-8,7.5-8.4c3.7-0.4,5.3-2.4,9.9-2.1
			s9.9,1.7,10,2s3.9,3.3,3.9,3.3s1.2,2.4,1.5,4.3C325.8,108.1,325.3,110.1,323.2,110z"/>
		<path class="st11" d="M291.3,123.8c-0.6,0.2-1,0.8-1.1,1.4s-0.1,1.2,0,1.9c0.1,0.3,0.1,0.7,0.2,1c0.1,0.2,0.2,0.4,0.3,0.5
			c0.4,0.6,0.8,1.3,1.2,1.9c0.2,0.3,0.4,0.6,0.6,0.8s0.5,0.4,0.8,0.5c0.2,0.1,0.3,0.1,0.5,0.1c0.2,0,0.4-0.1,0.4-0.3
			c0.1-0.2,0-0.5-0.1-0.7c-0.3-0.4-0.7-0.6-0.9-1c-0.3-0.5-0.1-1.3,0.4-1.7c0.2-0.1,0.4-0.2,0.6-0.3c0.3-0.2,0.3-0.7,0.2-1
			c-0.1-0.9-0.4-1.7-0.9-2.5c-0.2-0.3-0.4-0.6-0.8-0.7C292.3,123.8,291.8,123.7,291.3,123.8z"/>
		<path class="st11" d="M402.3,136.1c0,0,4.5,1.9,5.3,4.7c0.8,2.7,5.2-5.1,4.5-6.9C411.5,132.1,405.6,131.4,402.3,136.1z"/>
		<g>
			<path class="st11" d="M417.5,167.3c-1,0.8-2.4,2.4-2.4,2.4c0.1-0.2-6.1,6.5-8.9,8s1.8,0,5-2.8C415,171.4,416.3,168.9,417.5,167.3
				z"/>
			<path class="st11" d="M416.8,172.6c0.7-0.9-1.5,2.7-3.8,4.3c-2.2,1.6-5.6,3.6-6.1,4.5s3.8-2,5.7-3.3c3.1-2.1,5.6-6.5,5.6-6.5
				C417.6,171.8,416.8,172.6,416.8,172.6z"/>
			<path class="st11" d="M387.5,184.4c-1.5,0.2-6.6,4.9-6.6,5.2l0.7,1.8l5.9-5.6l0,0c-0.1,1.5,4.9,2.5,10,2.5
				c2.5,0,7.8-1.1,10.2-2.6c0.9-0.6,2.1-1.6,3.3-2.7c-1.9,1.4-7.9,3.6-11.8,3.6C395.3,186.5,389,184.3,387.5,184.4z"/>
		</g>
		<path class="st14" d="M372.7,218.4c-0.9,1-1.8,1.9-2.5,3c-1.1,1.7-1.8,3.5-2.5,5.4c-0.9,2.4-1.7,4.8-2.1,7.4
			c0.2-0.3,0.4-0.6,0.6-0.9c2.2-3.8,4.5-7.6,7-11.2c1.1-1.6,2.2-3.2,3.5-4.6c1.3-1.4,2.9-2.6,4.7-3.3c0.3-0.1,0.7-0.2,0.9-0.5
			c1.1-1-0.6-1.8-1.4-1.6c-0.8,0.1-1.8,1-2.5,1.4C376.2,214.8,374.4,216.6,372.7,218.4z"/>
		<path class="st14" d="M591.2,249.5c3.6-3.4,21.1-19.1,18.2-22.1c-0.2-0.2-0.4-0.4-0.6-0.5c0.1,1-0.6,2.5-2.5,5.3
			c-2.4,3.4-11,11.8-15.4,15.3c-4.4,3.5-9.4,10.1-12,12.6c-2.6,2.5-5.3,0-5.3,0c1,1.4,1.9,2.5,3.9,2.8
			C580.6,263.3,587.5,252.9,591.2,249.5z"/>
		<path class="st14" d="M586,336.2c0-0.4,0.1-0.8,0.1-1.2c0,0.2-0.1,0.3-0.2,0.5c-1.6,4.9-11.1,5.1-17.7,4.8
			c-6.6-0.3-10.9-5.2-14.2-9.8c-3.2-4.6-6.6-3.8-10.9-5.2c-4.2-1.4-5.1-5.2-5.1-5.2l-0.2,0.1c0,1.2,0.3,2.5,1.4,3.7
			c2.5,2.6,7.4,3,10.9,4.7c4.9,2.3,6.6,11.5,18.7,12.5C581.1,342.3,585.7,339.8,586,336.2z"/>
		<path class="st15" d="M569.1,251.6c0.8-0.2,2.9-1.6,4.6-3.8c-1.2,0.3-3,0.7-4.6,0.7c-2.6,0-7.1-2-7.1-2c-0.7,0.9-1.3,1.9-1.7,2.7
			C563.8,250,566.8,250.8,569.1,251.6z"/>
		<g>
			<path class="st15" d="M551.8,318.7c-0.4,0.8-2,4.3-4.4,5c-2.5,0.7-6.5-1.9-7.7-4.5c0.3,0.6,0.9,1.8,2,3.1
				c1.7,2.1,5.9,2.9,8.5,1.3c2.8-1.8,2.3-4,2.1-4.5c-0.1-0.1-0.1-0.1-0.1-0.2C552.1,318.9,551.9,318.8,551.8,318.7z"/>
			<path class="st15" d="M536.1,316.1L536.1,316.1c-0.8,0.5-1.7,0.9-2.4,1.2c2.2,0.6,4.2,1.1,5.9,1.5
				C538.6,316,536.1,316.1,536.1,316.1z"/>
			<path class="st15" d="M539.5,318.7c0,0,0.1,0.2,0.2,0.5C539.6,319,539.5,318.8,539.5,318.7z"/>
		</g>
		<path class="st16" d="M311.2,122.9c0,0,2.9-0.9,4.9-1s5.1,0,5.1,0s0.6-1.1-0.5-1.9s-4.2-0.6-6.8-0.1
			C312.4,120.3,310.5,122.2,311.2,122.9z"/>
		<path class="st16" d="M326.3,120c-0.1,0.1-0.6,1.8,0,2.3c0.3,0.3,1.8-0.1,2.6,0c0.8,0.1,1.5,0.8,1.5,0.8s0.7-2.2-0.6-2.8
			C328.5,119.7,326.3,120,326.3,120z"/>
		<path class="st4" d="M317.9,126.9c0,0.9-0.4,1.7-0.9,1.7s-0.9-0.8-0.9-1.7s0.5-1.2,1-1.2S317.9,126,317.9,126.9z"/>
		<path class="st4" d="M329.4,126.5c0,0.9-0.4,1.7-0.8,1.7c-0.4,0-0.8-0.7-0.8-1.7s0.4-1.4,0.8-1.4
			C329,125.1,329.4,125.6,329.4,126.5z"/>
		<path class="st17" d="M325.5,124c-1,2-1.4,4.2-1.1,6.4c0.2,1.1,0.7,2,0.9,3.1c0.7,3.5-2.3,2.8-4.4,2.9c-0.3,0-0.5,0.4-0.2,0.6
			c1.6,1.1,4.7,1.1,5.6-1c0.5-1.1,0-2.3-0.3-3.3c-1-3.2-1.5-5.3-0.3-8.5C325.8,124,325.6,123.9,325.5,124L325.5,124z"/>
		<path class="st4" d="M319.3,125.7c-1.8-0.3-4-0.2-5.5,0.7c-0.2,0.1,0,0.3,0.2,0.2c1.8-0.7,3.4-0.8,5.4-0.7
			C319.5,125.9,319.4,125.7,319.3,125.7L319.3,125.7z"/>
		<path class="st16" d="M316.5,139.4c0.9,1.5,4.1,3.2,5.9,2.4c0.1,0,0.1-0.2,0-0.2c-0.9-0.3-1.9-0.2-2.8-0.6
			c-1.1-0.4-1.8-1.1-2.7-1.7C316.7,139.2,316.4,139.2,316.5,139.4L316.5,139.4z"/>
		<path class="st17" d="M318.5,143.3c0.8,0.4,2.4,0.7,3.1-0.1c0.1-0.1,0-0.2-0.1-0.2c-0.5-0.1-0.9,0-1.3,0.1c-0.5,0-1,0-1.6-0.1
			C318.4,142.9,318.3,143.1,318.5,143.3L318.5,143.3z"/>
		<path class="st4" d="M326.3,125.9c0.6-0.1,1.3-0.4,1.9-0.4s1.1,0.1,1.7,0.2c0.1,0,0.3-0.2,0.1-0.2c-1.1-0.6-2.8-0.3-3.8,0.2
			C326,125.8,326.2,125.9,326.3,125.9L326.3,125.9z"/>
		<g>
			<path class="st18" d="M422.1,110L422.1,110c0-0.1,0-0.3,0-0.4s0-0.3-0.1-0.4c0-0.1,0-0.1-0.1-0.2c-0.1-0.2-0.2-0.4-0.3-0.6
				l-11-15.8c-0.1-0.2-0.3-0.3-0.4-0.5l0,0c-0.4-0.3-0.9-0.5-1.5-0.5h-24.3h-12.7h-11.6c-0.2,0-0.3,0-0.5,0.1
				c-0.2,0-0.3,0.1-0.5,0.2l0,0l0,0l0,0l0,0l0,0c-0.2,0.1-0.4,0.2-0.5,0.3l0,0c-0.2,0.1-0.3,0.3-0.4,0.5l-10.1,15.8
				c-0.1,0.2-0.2,0.4-0.3,0.7l0,0c-0.1,0.2-0.1,0.5-0.1,0.7c0,0.5,0.1,1,0.4,1.4l34.2,47.3c0.1,0.2,0.3,0.4,0.5,0.6l0.1,0.1
				c0.2,0.1,0.4,0.3,0.7,0.3l0,0l0,0l0,0l0,0c0.2,0.1,0.4,0.1,0.6,0.1c0.2,0,0.3,0,0.4-0.1l0,0l0,0l0,0c0.1,0,0.2-0.1,0.3-0.1l0,0
				l0,0c0,0,0,0,0.1,0c0,0,0.1,0,0.1-0.1c0.1,0,0.2-0.1,0.3-0.2c0.1,0,0.1-0.1,0.2-0.2c0.1-0.1,0.1-0.1,0.2-0.2
				c0.1-0.1,0.2-0.3,0.3-0.4l35.5-47.3c0.1-0.2,0.2-0.4,0.3-0.6c0.1-0.2,0.1-0.4,0.1-0.6l0,0l0,0C422,110.1,422.1,110.1,422.1,110
				L422.1,110z"/>
		</g>
		<g class="st19">
			<path class="st18" d="M416.9,111.3L416.9,111.3c0-0.1,0-0.2,0-0.4c0-0.1,0-0.2-0.1-0.3c0-0.1,0-0.1-0.1-0.2
				c-0.1-0.2-0.1-0.3-0.2-0.5L407,96.3c-0.1-0.2-0.2-0.3-0.4-0.4l0,0c-0.4-0.3-0.8-0.5-1.3-0.5h-20.9h-10.8h-10
				c-0.1,0-0.3,0-0.4,0.1c-0.1,0-0.3,0.1-0.4,0.1l0,0l0,0l0,0l0,0l0,0c-0.2,0.1-0.3,0.2-0.5,0.3l0,0c-0.1,0.1-0.3,0.3-0.4,0.4
				l-8.7,13.6c-0.1,0.2-0.2,0.4-0.3,0.6l0,0c-0.1,0.2-0.1,0.4-0.1,0.6c0,0.4,0.1,0.8,0.4,1.2l29.4,40.7c0.1,0.2,0.3,0.4,0.5,0.5
				l0.1,0.1c0.2,0.1,0.4,0.2,0.6,0.3l0,0l0,0l0,0l0,0c0.2,0.1,0.4,0.1,0.5,0.1s0.3,0,0.4,0l0,0l0,0l0,0c0.1,0,0.2,0,0.3-0.1l0,0l0,0
				c0,0,0,0,0.1,0h0.1c0.1,0,0.2-0.1,0.2-0.1c0.1,0,0.1-0.1,0.2-0.1s0.1-0.1,0.2-0.1c0.1-0.1,0.2-0.2,0.3-0.4l30.5-40.7
				c0.1-0.2,0.2-0.4,0.2-0.5C416.9,111.7,416.9,111.6,416.9,111.3L416.9,111.3C416.9,111.4,416.9,111.4,416.9,111.3
				C416.9,111.4,416.9,111.3,416.9,111.3L416.9,111.3z"/>
		</g>
		<g>
			<path class="st20" d="M411.6,111.4l-8-10.9c-0.3-0.4-0.8-0.7-1.4-0.7h-35.3c-0.6,0-1.1,0.3-1.4,0.8l-7.4,10.9
				c-0.4,0.6-0.4,1.3,0,1.9l24.8,32.5c0.3,0.5,0.9,0.8,1.4,0.8s1.1-0.3,1.4-0.8l25.8-32.5C412,112.8,412,112,411.6,111.4z"/>
			<path class="st5" d="M370.7,106.2l4.6,6.3l4.6-6.3l4.6-6.3h-9.2h-8.4c-0.2,0-0.5,0.1-0.7,0.2L370.7,106.2z"/>
			<path class="st21" d="M393.8,112.6l4.6-6.3l4.5-6.2c-0.1,0-0.2-0.1-0.2-0.1h-8.9h-9.2l4.6,6.3L393.8,112.6z"/>
			<path class="st5" d="M383,145.9c0.2,0.3,0.6,0.6,1,0.7l-8.6-34.1l-17.5-0.1c0,0.3,0.1,0.7,0.3,1L383,145.9z"/>
			<path class="st22" d="M384.4,146.7c0.2,0,0.4,0,0.5-0.1l8.8-34h-18.4l8.2,33.9C383.8,146.6,384.1,146.7,384.4,146.7z"/>
			<path class="st23" d="M385.8,145.9l25.8-32.5c0.2-0.3,0.3-0.6,0.3-0.9h-18.1l-9,34.1C385.2,146.5,385.6,146.3,385.8,145.9z"/>
			<path class="st24" d="M366.2,100c-0.3,0.1-0.5,0.3-0.7,0.6l-7.4,10.9c-0.2,0.3-0.3,0.6-0.3,1l17.5,0.1L366.2,100z"/>
			<path class="st25" d="M411.9,112.6c0-0.4-0.1-0.8-0.3-1.2l-8-10.9c-0.2-0.2-0.4-0.4-0.7-0.5l-9.1,12.5L411.9,112.6z"/>
		</g>
		<path class="st0" d="M368.9,112.8c0.7,0,1.3,0.1,2,0.1c0.5,0,1,0.1,1.5-0.1c0.1-0.1,0.1-0.2,0-0.3c-0.5-0.2-1-0.1-1.6-0.1
			c-0.7,0-1.3,0-2,0.1C368.5,112.3,368.6,112.7,368.9,112.8L368.9,112.8z"/>
		<path class="st0" d="M375.3,113c0.6,4.7,2,9.8,3.7,14.2c0.1,0.2,0.5,0.2,0.4-0.1c-0.9-4.7-2-9.5-3.3-14.1
			C376,112.6,375.2,112.5,375.3,113L375.3,113z"/>
		<path class="st0" d="M378.4,109.9c1.1-1.4,2.6-2.9,3.2-4.7c0.1-0.2-0.3-0.3-0.4-0.2c-1.4,1.3-2.2,3.1-3,4.7
			C378,110,378.3,110.1,378.4,109.9L378.4,109.9z"/>
		<path class="st0" d="M358.3,112.8c0.6,0.4,1.5,0.4,2.3,0.5c0.7,0.1,1.5,0.2,2.1-0.2c0.1-0.1,0.1-0.2,0-0.3c-0.6-0.3-1.3-0.3-2-0.3
			c-0.7,0-1.5-0.3-2.2-0.1C358.1,112.4,358.1,112.7,358.3,112.8L358.3,112.8z"/>
		<path class="st5" d="M393.8,113.4c-0.6,0.7-0.8,1.6-1,2.5c-0.3,1-0.7,2.2-0.8,3.3c0,0.2,0.2,0.3,0.4,0.2c0.7-0.7,1.1-1.8,1.4-2.7
			c0.4-0.9,0.7-2.1,0.4-3.1C394.1,113.4,393.9,113.3,393.8,113.4L393.8,113.4z"/>
		<path class="st5" d="M394.4,112.3c1.9-1,3.3-2.9,4.6-4.5c1.2-1.4,2.5-3,3.1-4.8c0.1-0.2-0.3-0.3-0.4-0.2c-1.6,1.3-2.9,3.1-4.3,4.7
			c-1.2,1.4-2.8,2.7-3.7,4.4C393.7,112.2,394.2,112.5,394.4,112.3L394.4,112.3z"/>
		<path class="st5" d="M388.8,113c4.4,0,9.4,0.1,13.8-0.8c0.3-0.1,0.1-0.4-0.1-0.4c-4.4-0.3-9.3,0.3-13.7,0.8
			C388.5,112.6,388.5,113,388.8,113L388.8,113z"/>
	</g>
</g>
</svg>
