<?xml version="1.0" encoding="utf-8"?>
<!-- Generator: Adobe Illustrator 21.1.0, SVG Export Plug-In . SVG Version: 6.00 Build 0)  -->
<!DOCTYPE svg PUBLIC "-//W3C//DTD SVG 1.1//EN" "http://www.w3.org/Graphics/SVG/1.1/DTD/svg11.dtd">
<svg version="1.1" id="Layer_1" xmlns="http://www.w3.org/2000/svg" xmlns:xlink="http://www.w3.org/1999/xlink" x="0px" y="0px"
	 viewBox="0 0 145 45" style="enable-background:new 0 0 145 45;" xml:space="preserve">
<style type="text/css">
	.st0{fill:#E66571;}
</style>
<path class="st0" d="M38.3,7.5h-3.9V5.2c0-0.5-0.4-0.8-0.8-0.8h-2.9c-0.5,0-0.8,0.4-0.8,0.8v2.3H15.4V5.2c0-0.5-0.4-0.8-0.8-0.8
	h-2.9c-0.5,0-0.8,0.4-0.8,0.8v2.3H6.7c-0.5,0-0.8,0.4-0.8,0.8v7.9v7.9V32v7.9c0,0.5,0.4,0.8,0.8,0.8h7.9h7.9h7.9h7.9
	c0.5,0,0.8-0.4,0.8-0.8V32v-7.9v-7.9V8.4C39.1,7.9,38.7,7.5,38.3,7.5z M21.7,17.1v6.2h-6.2v-6.2H21.7z M29.6,17.1v6.2h-6.2v-6.2
	H29.6z M37.5,17.1v6.2h-6.2v-6.2H37.5z M13.8,23.3H7.5v-6.2h6.2V23.3z M7.5,25h6.2v6.2H7.5V25z M15.4,25h6.2v6.2h-6.2V25z M23.3,25
	h6.2v6.2h-6.2V25z M31.2,25h6.2v6.2h-6.2V25z M31.4,6.1h1.3v4.4h-1.3V6.1z M12.5,6.1h1.3v4.4h-1.3V6.1z M7.5,9.2h3.3v2.1
	c0,0.5,0.4,0.8,0.8,0.8h2.9c0.5,0,0.8-0.4,0.8-0.8V9.2h14.4v2.1c0,0.5,0.4,0.8,0.8,0.8h2.9c0.5,0,0.8-0.4,0.8-0.8V9.2h3.1v6.2h-7.1
	h-7.9h-7.9H7.5V9.2z M7.5,32.9h6.2v6.2H7.5V32.9z M15.4,32.9h6.2v6.2h-6.2V32.9z M23.3,32.9h6.2v6.2h-6.2V32.9z M37.5,39.1h-6.2
	v-6.2h6.2V39.1z"/>
<g>
	<path class="st0" d="M72.5,8.3c-3.7,0-6.7,3-6.7,6.7s3,6.7,6.7,6.7s6.7-3,6.7-6.7S76.2,8.3,72.5,8.3z M72.5,19.7
		c-2.6,0-4.7-2.1-4.7-4.7c0-2.6,2.1-4.7,4.7-4.7s4.7,2.1,4.7,4.7C77.2,17.6,75.1,19.7,72.5,19.7z"/>
	<path class="st0" d="M86.1,16.5c0-0.1,0-0.2,0-0.3C85.6,9,79.7,3.4,72.5,3.4C65,3.4,58.9,9.5,58.9,17c0,11.3,12.4,21.9,13,22.3
		c0.2,0.2,0.4,0.2,0.6,0.2c0.2,0,0.5-0.1,0.7-0.3c0.5-0.5,12.9-11.6,12.9-20.9l0-0.1c0,0,0-0.1,0-0.1c0-0.2,0-0.4,0-0.6l0-0.2
		c0-0.1,0-0.3,0-0.4c0-0.1,0-0.1,0-0.2L86.1,16.5z M84.1,17.3l0,0.2c0,0,0,0,0,0c0,0.2,0,0.4,0,0.5c0,0,0,0.2,0,0.2c0,0,0,0.1,0,0.1
		c0.1,7.3-9,16.4-11.6,18.8C69.9,34.9,60.9,26,60.9,17c0-6.4,5.2-11.6,11.6-11.6c6.2,0,11.3,4.9,11.6,11.1c0,0.1,0,0.1,0,0.2l0,0.2
		c0,0,0,0.2,0,0.2C84.1,17.1,84.1,17.2,84.1,17.3z"/>
</g>
<path class="st0" d="M122.2,29.9c-0.9,0-1.9-0.3-2.7-0.8l-2.5-1.7c-0.6-0.4-1.1-1-1.4-1.6c-0.3-0.5-0.1-1.1,0.4-1.4
	c0.5-0.3,1.1-0.1,1.4,0.4c0.2,0.4,0.5,0.7,0.8,0.9l2.5,1.7c1.5,1,3.8,0.3,5-1.6l9.1-13.3c0.6-0.9,0.9-2,0.9-3
	c-0.1-1-0.5-1.7-1.2-2.2l-2.5-1.7c-0.7-0.5-1.6-0.6-2.5-0.3c-1,0.3-1.9,1-2.5,1.9l-5.4,7.8c-0.3,0.5-0.9,0.6-1.4,0.3
	c-0.5-0.3-0.6-0.9-0.3-1.4l5.4-7.8c0.9-1.3,2.2-2.3,3.6-2.7c1.5-0.4,3-0.2,4.2,0.6l2.5,1.7c1.2,0.8,1.9,2.1,2.1,3.7
	c0.1,1.5-0.3,3-1.2,4.4L127.3,27C126,28.8,124.1,29.9,122.2,29.9z"/>
<path class="st0" d="M112.9,42.9c-0.9,0-1.9-0.3-2.7-0.8l-2.5-1.7c-1.2-0.8-1.9-2.1-2.1-3.7c-0.1-1.5,0.3-3,1.2-4.4l9.1-13.3
	c1.9-2.8,5.4-3.7,7.8-2.1l2.5,1.7c0.6,0.4,1.1,1,1.4,1.6c0.3,0.5,0.1,1.1-0.4,1.4c-0.5,0.3-1.1,0.1-1.4-0.4
	c-0.2-0.4-0.5-0.7-0.8-0.9l-2.5-1.7c-1.5-1-3.8-0.3-5,1.6l-9.1,13.3c-0.6,0.9-0.9,2-0.9,3c0.1,1,0.5,1.7,1.2,2.2l2.5,1.7
	c1.5,1,3.8,0.3,5-1.6l4.6-6.7c0.3-0.5,0.9-0.6,1.4-0.3c0.5,0.3,0.6,0.9,0.3,1.4L118,40C116.7,41.9,114.8,42.9,112.9,42.9z"/>
</svg>
