<?xml version="1.0" encoding="utf-8"?>
<!-- Generator: Adobe Illustrator 21.1.0, SVG Export Plug-In . SVG Version: 6.00 Build 0)  -->
<!DOCTYPE svg PUBLIC "-//W3C//DTD SVG 1.1//EN" "http://www.w3.org/Graphics/SVG/1.1/DTD/svg11.dtd">
<svg version="1.1" id="Layer_1" xmlns="http://www.w3.org/2000/svg" xmlns:xlink="http://www.w3.org/1999/xlink" x="0px" y="0px"
	 viewBox="0 0 504 393" style="enable-background:new 0 0 504 393;" xml:space="preserve">
<style type="text/css">
	.st0{fill:#F2DCE3;}
	.st1{fill:#F3D1DB;}
	.st2{fill:#FCEDF0;}
	.st3{fill:#DF6F88;}
	.st4{fill:#EA8096;}
	.st5{fill:#FFFFFF;}
</style>
<g>
	<path class="st0" d="M495.7,313.7c0,0-116.1,34.7-205.9,53.3c-82.6,17.1-220.8,25.4-220.8,25.4c-5.1,0.9-10-2.5-11-7.6
		c0,0-31-84.1-43.2-151.7C-0.4,150-0.2,69.4-0.2,69.4c-0.9-5.1,2.5-10,7.6-11c0,0,105.5-5.5,209.8-23.1s204.2-35,204.2-35
		c5.1-0.9,10,2.5,11,7.6c0,0,14.1,76,25.1,136.6c10.9,60.6,45.8,158.3,45.8,158.3C504.2,307.8,500.8,312.8,495.7,313.7z"/>
	<path class="st1" d="M63,391.5c0,0,64.2-121.9,91.8-153.5s59.7-54.5,96.7-64.8c36.9-10.3,41.2-19.7,64.8-5.4
		c23.6,14.2,188.9,108.8,187,134.9C501.3,328.9,63,391.5,63,391.5z"/>
	<path class="st2" d="M495.7,313.7c5.1-0.9,8.5-5.9,7.6-11c0,0-0.1-0.4-0.4-1.2C455,264.1,313,158.6,251.5,173.3
		C187.4,188.6,89.1,347.7,63,391.5c1.8,0.9,3.8,1.3,5.9,0.9c0,0,138.2-8.3,220.8-25.4C379.6,348.4,495.7,313.7,495.7,313.7z"/>
	<path class="st1" d="M7.6,58.4c0,0,161.9,145.7,200.1,164.8s60.2,19.5,82.2-10.1s60.7-90.5,60.7-90.5L7.6,58.4z"/>
	<path class="st2" d="M421.4,0.3c0.2,0-97,16.9-204.2,35C115.8,52.4,13.4,58.1,7.6,58.4C58.5,102.2,212.8,232,251.5,226.7
		c37.9-5.2,141.9-164.1,179.1-222.8C428.5,1.2,425-0.4,421.4,0.3z"/>
	<g>
		<path class="st3" d="M298.1,216.8c0,25.7-20.9,46.6-46.6,46.6s-51.8-22.8-50.9-48.5c1.3-37.5,26.5-49.4,52.2-49.4
			S298.1,191.1,298.1,216.8z"/>
		<circle class="st4" cx="252.8" cy="212.2" r="46.6"/>
		<path class="st5" d="M275.1,201.3c0.3-0.5,0.1-1.2-0.7-1.6c-3.3-1.8-6.4-3.9-9.1-6.6c-0.2-0.2-0.5-0.3-0.8-0.4c0.3-1-1-2.3-2.4-2
			c-10,2.2-20.2,3.3-30.3,5.4c-0.2,0-0.4,0.1-0.5,0.2c-0.7-0.3-1.7-0.2-2.1,0.4c-1.1,1.7-1.8,3.8-2.5,5.7c-0.8,2.1-1.7,4.2-2.2,6.4
			c-0.1,0.3,0,0.6,0.2,0.8c-0.1,0.2,0,0.5,0.2,0.8c9.4,12.1,20.1,23,31.4,33.2c0.6,0.6,2.2,0.6,2.6-0.3
			c6.1-13.3,11.9-26.8,16.5-40.7C275.7,202,275.5,201.6,275.1,201.3z M243.7,207.3c-3.8-2.8-7.3-6-10.6-9.4c5.3,0,10.6-0.6,15.9-1.5
			C247.2,200,245.5,203.7,243.7,207.3z M251.3,197.8c1.9,3.2,3.7,6.6,5.8,9.7c-3.8,1-7.7,1.4-11.7,1.7
			C247.4,205.4,249.4,201.7,251.3,197.8z M258.1,210c-0.5,9.1-0.7,18.2-1.1,27.3c-4.1-8.4-7.8-16.8-11.4-25.4
			C249.8,211.6,254,211.1,258.1,210z M260,209.4c3.9-1.2,7.6-2.8,11-5c-3.8,9.8-7.5,19.6-11.6,29.3c0.3-8,0.6-15.9,0.7-23.9
			C260.2,209.7,260.1,209.5,260,209.4z M271.4,200.8c-3.3,2.5-6.6,4.2-10.1,5.5c1.4-3.6,2-7.6,2.8-11.5
			C266.2,197.1,268.6,199.2,271.4,200.8z M262.6,193.7c-1.3,3.8-2.8,7.8-3.4,11.8c-2-3.2-4.3-6.3-6.4-9.4c-0.1-0.1-0.2-0.2-0.3-0.2
			C255.9,195.2,259.3,194.4,262.6,193.7z M230.1,203.4c0.6-1.5,1.4-3.1,1.9-4.8c3.3,4,7.1,7.5,11.2,10.7c-4.9,0.2-9.9,0.2-14.9,0.3
			c-0.4,0-0.6,0.2-0.7,0.5c-0.1-0.1-0.3-0.3-0.4-0.4c0,0,0.1-0.1,0.1-0.1C228.4,207.6,229.2,205.5,230.1,203.4z M228.3,210.9
			c4.8,0.6,9.7,1,14.5,1c3,9.4,7.3,18.3,12.5,26.7C245.7,229.9,236.9,220.6,228.3,210.9z"/>
	</g>
</g>
</svg>
